<?xml version="1.0" standalone="no"?><!DOCTYPE svg PUBLIC "-//W3C//DTD SVG 1.1//EN" "http://www.w3.org/Graphics/SVG/1.1/DTD/svg11.dtd"><svg t="1509689013592" class="icon" style="" viewBox="0 0 1024 1024" version="1.1" xmlns="http://www.w3.org/2000/svg" p-id="2283" xmlns:xlink="http://www.w3.org/1999/xlink" width="200" height="200"><defs><style type="text/css"></style></defs><path d="M921.690358 242.380306l-4.012384 486.857367s-105.225553-12.497639-202.404849 9.801227c-97.199763 22.299889-201.527876 82.038458-201.527876 82.038458s-101.651145-55.727209-211.32808-78.465073c-77.555353-16.071024-201.965851-13.374612-201.965851-13.374612l1.337461-486.857367H64.339866l-1.337462 526.98325s115.02678-22.738887 250.115478 5.350868c123.198903 25.621541 202.529693 76.708056 201.297632 75.789127 0 0 106.520035-62.163805 201.735608-82.037435 121.714086-25.412786 238.977813-12.476149 238.977813-12.476149l5.349844-513.608638h-38.788421z" fill="#757575" p-id="2284"></path><path d="M371.969245 713.188138c81.588203 28.087709 139.103128 82.925664 139.103128 82.925665s110.113887-72.225975 186.353268-98.976222c76.239382-26.751271 195.277522-16.949021 195.277522-16.949021l0.899486-500.672s-159.89671-14.127765-240.754272 16.050557c-80.857563 30.1773-146.478096 76.447113-146.478096 76.447113s-80.419588-60.23078-189.238992-87.147825c-108.819404-26.91807-191.265138-4.012384-191.265138-4.012384l1.337461 508.257769c-0.001023 0 163.17743-4.012384 244.765633 24.076348z m-34.775015-489.533312c59.644425 16.550954 173.878143 86.938048 173.878143 86.938048s78.119195-66.457598 171.20322-84.264149c93.081978-17.805528 155.150616-5.349845 155.150616-5.349845l-2.673899 402.593218s-88.88233 8.819876-163.17743 35.214013c-87.838557 31.201629-159.165046 90.51348-159.165046 90.51348s-59.687404-54.399981-127.064954-77.577866c-67.37755-23.196305-195.277522-28.086685-195.277522-28.086686l1.044796-423.262979c-0.001023 0.002047 86.436628-13.289678 146.082076 3.282766z" fill="#757575" p-id="2285"></path></svg>