<?xml version="1.0" standalone="no"?><!DOCTYPE svg PUBLIC "-//W3C//DTD SVG 1.1//EN" "http://www.w3.org/Graphics/SVG/1.1/DTD/svg11.dtd"><svg t="1509689104616" class="icon" style="" viewBox="0 0 1024 1024" version="1.1" xmlns="http://www.w3.org/2000/svg" p-id="2943" xmlns:xlink="http://www.w3.org/1999/xlink" width="200" height="200"><defs><style type="text/css"></style></defs><path d="M897.536 193.024 701.44 193.024l0-163.84-76.288 0L398.336 29.184 322.56 29.184l0 76.288 0 87.552L126.464 193.024C56.832 193.024 0 249.856 0 319.488l0 548.864c0 69.632 56.832 126.464 126.464 126.464l771.072 0c69.632 0 126.464-56.832 126.464-126.464L1024 319.488C1024 249.856 967.168 193.024 897.536 193.024zM398.336 105.472l226.816 0c0 0 0 63.488 0 87.552l0 0L398.336 193.024 398.336 105.472zM914.432 299.008l0 275.968L110.08 574.976 110.08 299.008 914.432 299.008zM110.08 886.784l0-244.736 149.504 0 0 67.072 67.072 0 0-67.072 403.456 0 0 67.072 67.072 0 0-67.072 117.248 0 0 244.736L110.08 886.784z" p-id="2944"></path></svg>