<?xml version="1.0" standalone="no"?><!DOCTYPE svg PUBLIC "-//W3C//DTD SVG 1.1//EN" "http://www.w3.org/Graphics/SVG/1.1/DTD/svg11.dtd"><svg t="1509611243583" class="icon" style="" viewBox="0 0 1024 1024" version="1.1" xmlns="http://www.w3.org/2000/svg" p-id="1570" xmlns:xlink="http://www.w3.org/1999/xlink" width="200" height="200"><defs><style type="text/css"></style></defs><path d="M512.014222 906.666667C344.647111 906.666667 35.555556 780.558222 35.555556 600.888889c0-179.683556 309.091556-305.777778 476.458667-305.777778 167.338667 0 476.444444 126.094222 476.444444 305.777778C988.458667 780.558222 679.352889 906.666667 512.014222 906.666667zM512.014222 352C353.934222 352 92.444444 468.323556 92.444444 600.888889c0 132.551111 261.504 248.888889 419.569778 248.888889 158.051556 0 419.555556-116.337778 419.555556-248.888889C931.569778 468.323556 670.065778 352 512.014222 352z" p-id="1571"></path><path d="M512.014222 752.597333c-82.360889 0-149.347556-66.972444-149.347556-149.333333 0-82.346667 67.000889-149.333333 149.347556-149.333333 82.332444 0 149.333333 66.986667 149.333333 149.333333C661.347556 685.624889 594.346667 752.597333 512.014222 752.597333zM512.014222 482.375111c-66.673778 0-120.903111 54.243556-120.903111 120.888889 0 66.673778 54.229333 120.888889 120.903111 120.888889 66.645333 0 120.888889-54.229333 120.888889-120.888889C632.903111 536.618667 578.659556 482.375111 512.014222 482.375111z" p-id="1572"></path><path d="M456.149333 566.172444c-3.441778 0-6.883556-1.251556-9.628444-3.754667-5.774222-5.333333-6.158222-14.336-0.839111-20.110222 2.844444-3.086222 5.902222-6.001778 9.159111-8.661333 6.087111-5.006222 15.047111-4.138667 20.024889 1.948444 5.006222 6.058667 4.124444 15.032889-1.934222 20.024889-2.247111 1.834667-4.366222 3.84-6.314667 5.944889C463.815111 564.622222 459.975111 566.172444 456.149333 566.172444z" p-id="1573"></path><path d="M512.014222 693.333333c-49.692444 0-90.097778-40.419556-90.097778-90.083556 0-7.864889 6.371556-14.222222 14.222222-14.222222 7.864889 0 14.222222 6.357333 14.222222 14.222222 0 34.005333 27.662222 61.639111 61.653333 61.639111 7.864889 0 14.222222 6.357333 14.222222 14.222222S519.879111 693.333333 512.014222 693.333333z" p-id="1574"></path><path d="M510.236444 259.555556c-15.715556 0-28.444444-12.743111-28.444444-28.444444l0-85.333333c0-15.701333 12.728889-28.444444 28.444444-28.444444 15.701333 0 28.444444 12.743111 28.444444 28.444444l0 85.333333C538.680889 246.812444 525.923556 259.555556 510.236444 259.555556z" p-id="1575"></path><path d="M346.353778 269.226667c-10.410667 0-20.437333-5.717333-25.429333-15.658667l-26.339556-52.337778c-7.068444-14.037333-1.422222-31.132444 12.629333-38.200889 14.008889-7.082667 31.118222-1.436444 38.200889 12.615111l26.339556 52.337778c7.054222 14.037333 1.408 31.132444-12.629333 38.200889C355.015111 268.245333 350.648889 269.226667 346.353778 269.226667z" p-id="1576"></path><path d="M180.394667 335.175111c-7.793778 0-15.559111-3.185778-21.162667-9.429333l-36.977778-41.159111c-10.496-11.690667-9.543111-29.681778 2.147556-40.163556 11.662222-10.524444 29.653333-9.557333 40.163556 2.133333l36.977778 41.159111c10.496 11.690667 9.528889 29.681778-2.147556 40.163556C193.962667 332.771556 187.164444 335.175111 180.394667 335.175111z" p-id="1577"></path><path d="M662.485333 269.226667c-4.309333 0-8.661333-0.967111-12.771556-3.043556-14.023111-7.054222-19.669333-24.149333-12.615111-38.200889l26.339556-52.337778c7.025778-14.008889 24.106667-19.712 38.200889-12.615111 14.023111 7.054222 19.697778 24.149333 12.615111 38.200889l-26.339556 52.337778C682.936889 263.495111 672.896 269.226667 662.485333 269.226667z" p-id="1578"></path><path d="M828.430222 335.175111c-6.755556 0-13.553778-2.403556-19.000889-7.296-11.662222-10.481778-12.643556-28.472889-2.133333-40.163556l36.977778-41.159111c10.496-11.662222 28.472889-12.657778 40.163556-2.133333 11.690667 10.481778 12.643556 28.472889 2.133333 40.163556l-36.977778 41.159111C843.989333 332.003556 836.238222 335.175111 828.430222 335.175111z" p-id="1579"></path></svg>