<?xml version="1.0" standalone="no"?><!DOCTYPE svg PUBLIC "-//W3C//DTD SVG 1.1//EN" "http://www.w3.org/Graphics/SVG/1.1/DTD/svg11.dtd"><svg t="1509689454471" class="icon" style="" viewBox="0 0 1024 1024" version="1.1" xmlns="http://www.w3.org/2000/svg" p-id="10054" xmlns:xlink="http://www.w3.org/1999/xlink" width="200" height="200"><defs><style type="text/css"></style></defs><path d="M859 521v-9.5c0-80.9-66.7-147.6-147.6-147.6H535.2V302c38.1-9.5 71.4-47.6 71.4-90.5 0-52.4-42.8-95.2-95.2-95.2s-95.2 42.9-95.2 95.2c0 42.9 28.6 80.9 71.4 90.5v61.9H316.2c-80.9 0-147.6 66.7-147.6 147.6v9.5c-61.9 9.5-104.7 61.9-104.7 123.8s42.9 109.5 100 123.8c4.8 76.2 66.7 138.1 147.6 138.1h399.9c80.9 0 142.8-61.9 147.6-138.1 57.1-9.5 100-61.9 100-123.8 4.7-61.9-38.1-114.3-100-123.8zM163.9 716.2c-28.6-9.5-52.4-38.1-52.4-71.4 0-33.3 23.8-61.9 52.4-76.2v147.6z m304.7-504.7c0-23.8 19-47.6 47.6-47.6 23.8 0 47.6 19 47.6 47.6s-19 47.6-47.6 47.6c-28.6-4.8-47.6-23.8-47.6-47.6zM811.4 759c0 57.1-42.8 100-100 100H316.2c-57.1 0-100-42.8-100-100V511.4c0-57.1 42.8-100 100-100h399.9c57.1 0 100 42.9 100 100V759h-4.7z m47.6-42.8V568.6c33.3 9.5 52.4 38.1 52.4 76.2 4.7 33.3-19.1 61.8-52.4 71.4z m0 0" p-id="10055"></path><path d="M687.6 511.4c-38.1 0-71.4 33.3-71.4 71.4 0 38.1 33.3 71.4 71.4 71.4 38.1 0 71.4-33.3 71.4-71.4 0-38-33.3-71.4-71.4-71.4z m0 95.3c-14.3 0-23.8-9.5-23.8-23.8s9.5-23.8 23.8-23.8 23.8 9.5 23.8 23.8c0 14.2-9.5 23.8-23.8 23.8zM340 511.4c-38.1 0-71.4 33.3-71.4 71.4 0 38.1 33.3 71.4 71.4 71.4s71.4-33.3 71.4-71.4c0-38-33.3-71.4-71.4-71.4z m0 95.3c-14.3 0-23.8-9.5-23.8-23.8s9.5-23.8 23.8-23.8 23.8 9.5 23.8 23.8c0 14.2-9.5 23.8-23.8 23.8z m238.1 119H449.5c-14.3 0-23.8 9.5-23.8 23.8s9.5 23.8 23.8 23.8H578c14.3 0 23.8-9.5 23.8-23.8 0.1-9.5-9.4-23.8-23.7-23.8z m0 0" p-id="10056"></path></svg>