<?xml version="1.0" standalone="no"?><!DOCTYPE svg PUBLIC "-//W3C//DTD SVG 1.1//EN" "http://www.w3.org/Graphics/SVG/1.1/DTD/svg11.dtd"><svg t="1509775403684" class="icon" style="" viewBox="0 0 1365 1024" version="1.1" xmlns="http://www.w3.org/2000/svg" p-id="15612" xmlns:xlink="http://www.w3.org/1999/xlink" width="266.6015625" height="200"><defs><style type="text/css"></style></defs><path d="M772.949333 603.989333c-33.962667 0-61.44-27.477333-61.44-61.44 0-33.792 27.136-60.928 60.757334-61.269333-25.6-19.114667-57.002667-30.890667-91.477334-30.890667-84.821333 0-153.6 68.778667-153.6 153.6s68.778667 153.6 153.6 153.6 153.6-68.778667 153.6-153.6c0-12.8-2.048-25.088-5.12-37.205333-9.216 22.016-31.061333 37.205333-56.32 37.205333z m0 0" p-id="15613"></path><path d="M1194.496 428.714667c11.946667-11.946667 11.946667-31.402667 0-43.349334s-31.061333-11.946667-42.837333 0l-83.626667 84.821334c-31.573333-44.032-69.973333-82.432-113.834667-113.834667l80.896-132.608c8.362667-16.042667 3.413333-36.522667-11.093333-45.568-14.506667-9.216-33.109333-3.754667-41.472 12.288l-81.237333 133.12c-59.221333-31.744-125.610667-51.541333-196.266667-55.978667 0-0.341333 0.170667-0.512 0.170667-0.853333V112.298667c0-16.725333-13.653333-30.378667-30.378667-30.378667s-30.378667 13.653333-30.378667 30.378667v154.282666c0 0.341333 0.170667 0.512 0.170667 0.853334-67.925333 4.266667-131.754667 22.869333-189.269333 52.224l-84.48-130.901334c-8.021333-14.506667-25.941333-19.456-39.936-11.093333s-18.773333 26.965333-10.581334 41.472l84.309334 130.389333c-44.032 29.866667-82.944 66.901333-115.029334 109.397334l-81.237333-84.48c-11.264-11.946667-29.866667-11.946667-41.301333 0-11.264 11.946667-11.264 31.061333 0 43.008l82.432 85.845333c2.218667 2.389333 4.778667 3.754667 7.338666 5.12-17.578667 30.037333-32.426667 61.952-43.349333 95.744h5.802667c0 8.533333 3.413333 16.042667 8.874666 21.674667C298.325333 810.666667 474.282667 942.08 681.301333 942.08c214.869333 0 396.970667-141.653333 460.629334-337.92h-5.802667c0-0.170667-0.170667-0.341333-0.170667-0.341333-0.170667-7.338667-3.072-13.824-7.168-19.114667-8.192-21.845333-17.408-43.008-28.501333-63.146667 3.072-1.536 6.144-3.242667 8.533333-5.802666l85.674667-87.04z m-513.706667 451.754666c-179.882667 0-332.970667-113.493333-394.922666-273.408 0.170667-1.024 0.682667-2.048 0.682666-3.072 0-4.608-1.194667-9.045333-3.072-12.970666 64.512-154.624 214.698667-263.509333 390.997334-263.509334 179.882667 0 333.312 113.493333 395.264 273.408-0.170667 1.024-0.682667 2.048-0.682667 3.072 0 4.437333 1.024 8.533333 2.56 12.117334-63.829333 154.965333-214.357333 264.362667-390.826667 264.362666z m0 0" p-id="15614"></path></svg>