<?xml version="1.0" standalone="no"?><!DOCTYPE svg PUBLIC "-//W3C//DTD SVG 1.1//EN" "http://www.w3.org/Graphics/SVG/1.1/DTD/svg11.dtd"><svg t="1509689348705" class="icon" style="" viewBox="0 0 1024 1024" version="1.1" xmlns="http://www.w3.org/2000/svg" p-id="5650" xmlns:xlink="http://www.w3.org/1999/xlink" width="200" height="200"><defs><style type="text/css"></style></defs><path d="M949.498452 469.201238l-25.362229 0c-9.510836-69.74613-34.873065-133.151703-72.916409-187.04644l15.851393-15.851393c25.362229-25.362229 25.362229-63.405573 3.170279-88.767802-25.362229-25.362229-63.405573-25.362229-88.767802-3.170279L765.622291 190.216718c-53.894737-41.213622-117.30031-69.74613-183.876161-82.427245l0-25.362229c0-34.873065-25.362229-63.405573-60.235294-63.405573-34.873065 0-63.405573 25.362229-63.405573 60.235294l0 25.362229c-69.74613 9.510836-133.151703 34.873065-187.04644 72.916409L252.037152 161.684211C229.845201 136.321981 188.631579 136.321981 163.26935 158.513932 137.907121 183.876161 137.907121 221.919505 163.26935 247.281734l15.851393 15.851393C137.907121 317.027864 109.374613 380.433437 96.693498 450.179567l-25.362229 0c-34.873065 0-63.405573 25.362229-63.405573 60.235294 0 34.873065 25.362229 63.405573 60.235294 63.405573l25.362229 0c9.510836 69.74613 34.873065 133.151703 72.916409 187.04644l-19.021672 15.851393c-25.362229 25.362229-25.362229 63.405573-3.170279 88.767802 25.362229 25.362229 63.405573 25.362229 88.767802 3.170279l19.021672-15.851393c53.894737 41.213622 114.130031 69.74613 183.876161 82.427245l0 25.362229c0 34.873065 25.362229 63.405573 60.235294 63.405573 34.873065 0 63.405573-25.362229 63.405573-60.235294l0-25.362229c69.74613-9.510836 133.151703-34.873065 187.04644-72.916409l15.851393 19.021672c25.362229 25.362229 63.405573 25.362229 88.767802 3.170279 25.362229-25.362229 25.362229-63.405573 3.170279-88.767802l-15.851393-19.021672c41.213622-53.894737 69.74613-114.130031 82.427245-183.876161l25.362229 0c34.873065 0 63.405573-25.362229 63.405573-60.235294C1012.904025 497.733746 984.371517 469.201238 949.498452 469.201238L949.498452 469.201238zM512 840.123839c-177.535604 0-320.198142-142.662539-320.198142-320.198142 0-177.535604 142.662539-320.198142 320.198142-320.198142 177.535604 0 320.198142 142.662539 320.198142 320.198142C829.027864 697.4613 686.365325 840.123839 512 840.123839L512 840.123839zM512 294.835913c-126.811146 0-228.260062 101.448916-228.260062 228.260062 0 126.811146 101.448916 228.260062 228.260062 228.260062 126.811146 0 228.260062-101.448916 228.260062-228.260062C740.260062 396.28483 635.640867 294.835913 512 294.835913L512 294.835913zM512 691.120743c-91.93808 0-168.024768-76.086687-168.024768-168.024768 0-91.93808 76.086687-168.024768 168.024768-168.024768 91.93808 0 168.024768 76.086687 168.024768 168.024768C676.854489 615.034056 603.93808 691.120743 512 691.120743L512 691.120743zM512 691.120743" p-id="5651"></path></svg>